<?xml version="1.0" encoding="utf-8"?>
<!-- Generator: Adobe Illustrator 16.0.0, SVG Export Plug-In . SVG Version: 6.00 Build 0)  -->
<!DOCTYPE svg PUBLIC "-//W3C//DTD SVG 1.1//EN" "http://www.w3.org/Graphics/SVG/1.1/DTD/svg11.dtd">
<svg version="1.1" id="Layer_1" xmlns="http://www.w3.org/2000/svg" xmlns:xlink="http://www.w3.org/1999/xlink" x="0px" y="0px"
	 width="49.75px" height="36.375px" viewBox="0 0 49.75 36.375" enable-background="new 0 0 49.75 36.375" xml:space="preserve">
<g>
	<g>
		<path fill="#7D7D7D" d="M21.403,12.85c0.88-0.686,1.32-1.617,1.32-2.795c0-0.779-0.264-1.437-0.79-1.973s-1.245-0.86-2.154-0.971
			V7.067c1.705-0.416,2.559-1.447,2.559-3.094c0-0.926-0.367-1.679-1.101-2.259c-0.732-0.58-1.758-0.87-3.074-0.87
			c-1.203,0-2.257,0.223-3.16,0.668V3.78c0.813-0.545,1.652-0.817,2.514-0.817c1.287,0,1.931,0.513,1.931,1.538
			c0,1.09-0.839,1.635-2.515,1.635h-1.104v2.127h1.193c0.874,0,1.561,0.152,2.061,0.457s0.75,0.738,0.75,1.301
			c0,0.545-0.202,0.97-0.606,1.274c-0.403,0.305-0.968,0.457-1.692,0.457c-1.148,0-2.154-0.308-3.016-0.923v2.417
			c0.831,0.422,1.912,0.633,3.24,0.633C19.309,13.878,20.524,13.536,21.403,12.85z M39.53,9.781v1.243
			c3.922,0.979,6.371,2.348,6.371,3.868c0,2.272-5.46,4.211-13.168,4.999v0.05c-0.493,0.172-0.85,0.619-0.85,1.158
			s0.356,0.986,0.85,1.158v0.097c0.104-0.011,0.205-0.025,0.309-0.036c0.04,0.004,0.075,0.022,0.116,0.022
			c0.164,0,0.318-0.036,0.463-0.091c8.924-1.056,15.254-3.67,15.254-6.737C48.875,13.18,45.212,11.105,39.53,9.781z M30.01,21.31
			c0,0-0.377-0.392-0.675-0.624c-0.811-0.633-2.004-1.492-2.739-2.016c-0.396-0.282-0.659-0.053-0.659-0.053v1.644
			c-0.284,0.003-0.563,0.011-0.85,0.011c-11.495,0-20.813-2.408-20.813-5.379c0-1.626,2.806-3.081,7.221-4.067V9.502
			c-6.405,1.3-10.619,3.507-10.619,6.011c0,3.999,10.745,7.241,24,7.241c0.358,0,0.707-0.011,1.062-0.016v1.258
			c0,0,0.27,0.261,0.673,0.026c0.736-0.43,1.922-1.134,2.726-1.682C30.141,21.68,30.01,21.31,30.01,21.31z M23.034,29.008
			c-0.833,0-1.483,0.268-1.953,0.803c-0.469,0.535-0.703,1.283-0.703,2.242c0,0.619,0.108,1.16,0.325,1.622
			c0.218,0.462,0.525,0.816,0.924,1.063c0.399,0.247,0.856,0.371,1.37,0.371c0.833,0,1.485-0.27,1.958-0.809
			s0.709-1.288,0.709-2.248c0-0.935-0.237-1.676-0.711-2.224C24.479,29.281,23.839,29.008,23.034,29.008z M24.317,33.774
			c-0.296,0.392-0.729,0.588-1.299,0.588s-1.003-0.196-1.297-0.591c-0.294-0.394-0.44-0.967-0.44-1.719
			c0-0.759,0.145-1.33,0.436-1.713c0.29-0.383,0.721-0.575,1.291-0.575c0.577,0,1.014,0.194,1.31,0.583s0.443,0.957,0.443,1.705
			C24.761,32.809,24.613,33.383,24.317,33.774z M26.806,29.877h1.848v5.125h0.871v-5.125h1.868v-0.762h-4.587V29.877z
			 M17.539,28.368c-0.439-0.243-0.958-0.365-1.557-0.365h-0.367v-0.967h-0.903v0.967H14.36c-0.599,0-1.118,0.124-1.559,0.374
			c-0.441,0.248-0.78,0.595-1.016,1.039c-0.236,0.443-0.354,0.949-0.354,1.514c0,0.577,0.128,1.098,0.383,1.563
			c0.256,0.466,0.609,0.816,1.061,1.053S13.86,33.9,14.476,33.9h0.236v1.209h0.903V33.9h0.215c0.616,0,1.15-0.116,1.604-0.35
			c0.453-0.232,0.811-0.58,1.071-1.044c0.26-0.464,0.391-0.993,0.391-1.587c0-0.57-0.116-1.076-0.349-1.521
			C18.313,28.955,17.978,28.611,17.539,28.368z M14.712,33.133h-0.126c-0.707,0-1.254-0.194-1.643-0.583s-0.583-0.936-0.583-1.642
			c0-0.654,0.183-1.172,0.549-1.552c0.365-0.38,0.867-0.569,1.504-0.569h0.299V33.133z M17.387,32.545
			c-0.391,0.392-0.938,0.588-1.641,0.588h-0.131v-4.346h0.304c0.647,0,1.151,0.188,1.512,0.564c0.36,0.375,0.541,0.895,0.541,1.557
			C17.972,31.607,17.776,32.152,17.387,32.545z M35.19,29.008c-0.833,0-1.484,0.268-1.953,0.803s-0.703,1.283-0.703,2.242
			c0,0.619,0.108,1.16,0.325,1.622c0.218,0.462,0.525,0.816,0.924,1.063c0.399,0.247,0.856,0.371,1.37,0.371
			c0.833,0,1.485-0.27,1.958-0.809s0.709-1.288,0.709-2.248c0-0.935-0.237-1.676-0.712-2.224
			C36.635,29.281,35.995,29.008,35.19,29.008z M36.474,33.774c-0.296,0.392-0.729,0.588-1.299,0.588s-1.003-0.196-1.297-0.591
			c-0.294-0.394-0.44-0.967-0.44-1.719c0-0.759,0.145-1.33,0.436-1.713c0.29-0.383,0.721-0.575,1.291-0.575
			c0.577,0,1.014,0.194,1.31,0.583s0.443,0.957,0.443,1.705C36.917,32.809,36.77,33.383,36.474,33.774z M34.604,11.901
			c1.247-1.172,1.871-2.739,1.871-4.702c0-4.096-2.286-6.144-6.858-6.144h-4.561v12.604h4.561
			C31.693,13.659,33.355,13.073,34.604,11.901z M27.955,11.356V3.367h1.419c1.28,0,2.275,0.344,2.984,1.033
			c0.71,0.688,1.064,1.633,1.064,2.834c0,1.271-0.358,2.276-1.073,3.015s-1.701,1.107-2.958,1.107H27.955z"/>
	</g>
</g>
</svg>
