<?xml version="1.0" encoding="utf-8"?>
<!-- Generator: Adobe Illustrator 16.0.0, SVG Export Plug-In . SVG Version: 6.00 Build 0)  -->
<!DOCTYPE svg PUBLIC "-//W3C//DTD SVG 1.1//EN" "http://www.w3.org/Graphics/SVG/1.1/DTD/svg11.dtd">
<svg version="1.1" id="Layer_1" xmlns="http://www.w3.org/2000/svg" xmlns:xlink="http://www.w3.org/1999/xlink" x="0px" y="0px"
	 width="35.063px" height="45.313px" viewBox="0 0 35.063 45.313" enable-background="new 0 0 35.063 45.313" xml:space="preserve">
<g>
	<g>
		<path fill="#7D7D7D" d="M19.391,4.698c-2.31,0.003-4.174,1.808-4.18,4.037c0.006,2.23,1.871,4.032,4.18,4.037
			c2.308-0.005,4.177-1.807,4.178-4.037C23.567,6.506,21.698,4.701,19.391,4.698z M19.393,1.374c-3.963,0-7.221,2.925-7.585,6.662
			c-0.962-1.417-2.619-2.357-4.504-2.357c-2.98,0-5.394,2.332-5.394,5.209c0,1.79,0.936,3.367,2.357,4.304H4.138
			c-1.663,0-3.01,1.301-3.01,2.906v9.372c0,1.604,1.347,2.906,3.01,2.906h19.034c1.66,0,2.953-1.396,2.953-3.001v-9
			c0-1.605-1.293-3.183-2.953-3.183h-0.119c2.359-1.25,3.962-3.673,3.962-6.458C27.015,4.669,23.602,1.374,19.393,1.374z
			 M10.302,15.192c1.13-0.738,1.964-1.866,2.264-3.197c0.7,1.363,1.83,2.474,3.209,3.197H10.302z M19.391,13.872
			c-2.936,0-5.316-2.3-5.316-5.137S16.455,3.6,19.391,3.6c2.938,0,5.316,2.299,5.32,5.135
			C24.707,11.571,22.328,13.872,19.391,13.872z M27.125,21.375v3l7,4v-11L27.125,21.375z M4.75,38.137v-0.053
			c0.486-0.09,0.856-0.285,1.11-0.588c0.254-0.303,0.381-0.688,0.381-1.152c0-0.674-0.228-1.166-0.683-1.478
			c-0.455-0.312-1.191-0.468-2.21-0.468H1.18v7.854h2.677c0.833,0,1.481-0.197,1.945-0.592c0.464-0.393,0.696-0.941,0.696-1.643
			C6.498,38.969,5.915,38.342,4.75,38.137z M2.072,35.188h1.313c0.672,0,1.162,0.098,1.47,0.293
			c0.308,0.195,0.462,0.513,0.462,0.953c0,0.479-0.138,0.821-0.415,1.023c-0.276,0.202-0.729,0.304-1.359,0.304h-1.47V35.188z
			 M5.072,41.105c-0.313,0.244-0.78,0.367-1.399,0.367H2.072v-2.938H3.6c0.654,0,1.142,0.114,1.461,0.344
			c0.32,0.229,0.48,0.587,0.48,1.074C5.542,40.476,5.385,40.859,5.072,41.105z M9.103,41.381l0.016-0.306l0.037-0.978v-3.732H8.337
			v5.887h1.086l3.107-5.006l-0.026,0.697l-0.016,0.709v3.6h0.813v-5.887h-1.086L9.103,41.381z M19.646,36.365h-2.913
			c-0.011,1.006-0.149,1.947-0.415,2.824c-0.266,0.878-0.634,1.643-1.103,2.294h-0.451v2.804h0.84v-2.035h4.021v2.035h0.845v-2.804
			h-0.824V36.365z M18.806,41.483h-2.688c0.378-0.519,0.694-1.187,0.948-2.001c0.253-0.814,0.403-1.619,0.449-2.414h1.291V41.483z
			 M24.146,36.258c-0.77,0-1.383,0.279-1.84,0.838s-0.686,1.313-0.686,2.261c0,0.942,0.246,1.678,0.738,2.208
			c0.491,0.529,1.162,0.795,2.013,0.795c0.389,0,0.72-0.029,0.995-0.089c0.274-0.06,0.565-0.157,0.873-0.293v-0.795
			c-0.605,0.265-1.217,0.397-1.836,0.397c-0.588,0-1.045-0.179-1.368-0.537c-0.323-0.357-0.494-0.883-0.512-1.574h3.963v-0.563
			c0-0.795-0.21-1.435-0.63-1.92S24.867,36.258,24.146,36.258z M22.545,38.744c0.049-0.544,0.211-0.971,0.486-1.278
			c0.274-0.308,0.643-0.462,1.104-0.462c0.455,0,0.806,0.15,1.05,0.449c0.245,0.299,0.367,0.729,0.367,1.291H22.545z M30.631,36.258
			c-0.832,0-1.483,0.268-1.952,0.803c-0.47,0.535-0.704,1.283-0.704,2.242c0,0.619,0.109,1.16,0.326,1.622s0.525,0.816,0.924,1.063
			s0.855,0.371,1.37,0.371c0.833,0,1.485-0.27,1.958-0.809s0.709-1.288,0.709-2.248c0-0.935-0.238-1.676-0.712-2.224
			S31.436,36.258,30.631,36.258z M31.914,41.024c-0.295,0.392-0.729,0.588-1.299,0.588s-1.002-0.196-1.297-0.591
			c-0.293-0.394-0.44-0.967-0.44-1.719c0-0.759,0.146-1.33,0.436-1.713s0.722-0.575,1.292-0.575c0.577,0,1.014,0.194,1.309,0.583
			c0.297,0.389,0.444,0.957,0.444,1.705C32.358,40.059,32.211,40.633,31.914,41.024z"/>
	</g>
</g>
</svg>
